<mxfile host="app.diagrams.net" modified="2021-01-03T12:50:06.551Z" agent="5.0 (Macintosh; Intel Mac OS X 10_15_7) AppleWebKit/537.36 (KHTML, like Gecko) Chrome/87.0.4280.88 Safari/537.36" etag="CTQ6YGB0WeaTvNXppMR9" version="14.1.8" type="github">
  <diagram id="C5RBs43oDa-KdzZeNtuy" name="Page-1">
    <mxGraphModel dx="946" dy="646" grid="1" gridSize="10" guides="1" tooltips="1" connect="1" arrows="1" fold="1" page="1" pageScale="1" pageWidth="827" pageHeight="1169" math="0" shadow="0">
      <root>
        <mxCell id="WIyWlLk6GJQsqaUBKTNV-0" />
        <mxCell id="WIyWlLk6GJQsqaUBKTNV-1" parent="WIyWlLk6GJQsqaUBKTNV-0" />
        <mxCell id="l0i7x62eAgYZ_ivTvQpw-68" value="user" style="shape=table;startSize=30;container=1;collapsible=1;childLayout=tableLayout;fixedRows=1;rowLines=0;fontStyle=1;align=center;resizeLast=1;" vertex="1" parent="WIyWlLk6GJQsqaUBKTNV-1">
          <mxGeometry x="90" y="300" width="180" height="250" as="geometry" />
        </mxCell>
        <mxCell id="l0i7x62eAgYZ_ivTvQpw-69" value="" style="shape=partialRectangle;collapsible=0;dropTarget=0;pointerEvents=0;fillColor=none;top=0;left=0;bottom=1;right=0;points=[[0,0.5],[1,0.5]];portConstraint=eastwest;" vertex="1" parent="l0i7x62eAgYZ_ivTvQpw-68">
          <mxGeometry y="30" width="180" height="30" as="geometry" />
        </mxCell>
        <mxCell id="l0i7x62eAgYZ_ivTvQpw-70" value="PK" style="shape=partialRectangle;connectable=0;fillColor=none;top=0;left=0;bottom=0;right=0;fontStyle=1;overflow=hidden;" vertex="1" parent="l0i7x62eAgYZ_ivTvQpw-69">
          <mxGeometry width="30" height="30" as="geometry" />
        </mxCell>
        <mxCell id="l0i7x62eAgYZ_ivTvQpw-71" value="user_id" style="shape=partialRectangle;connectable=0;fillColor=none;top=0;left=0;bottom=0;right=0;align=left;spacingLeft=6;fontStyle=5;overflow=hidden;" vertex="1" parent="l0i7x62eAgYZ_ivTvQpw-69">
          <mxGeometry x="30" width="150" height="30" as="geometry" />
        </mxCell>
        <mxCell id="l0i7x62eAgYZ_ivTvQpw-72" value="" style="shape=partialRectangle;collapsible=0;dropTarget=0;pointerEvents=0;fillColor=none;top=0;left=0;bottom=0;right=0;points=[[0,0.5],[1,0.5]];portConstraint=eastwest;" vertex="1" parent="l0i7x62eAgYZ_ivTvQpw-68">
          <mxGeometry y="60" width="180" height="30" as="geometry" />
        </mxCell>
        <mxCell id="l0i7x62eAgYZ_ivTvQpw-73" value="" style="shape=partialRectangle;connectable=0;fillColor=none;top=0;left=0;bottom=0;right=0;editable=1;overflow=hidden;" vertex="1" parent="l0i7x62eAgYZ_ivTvQpw-72">
          <mxGeometry width="30" height="30" as="geometry" />
        </mxCell>
        <mxCell id="l0i7x62eAgYZ_ivTvQpw-74" value="name" style="shape=partialRectangle;connectable=0;fillColor=none;top=0;left=0;bottom=0;right=0;align=left;spacingLeft=6;overflow=hidden;" vertex="1" parent="l0i7x62eAgYZ_ivTvQpw-72">
          <mxGeometry x="30" width="150" height="30" as="geometry" />
        </mxCell>
        <mxCell id="l0i7x62eAgYZ_ivTvQpw-75" value="" style="shape=partialRectangle;collapsible=0;dropTarget=0;pointerEvents=0;fillColor=none;top=0;left=0;bottom=0;right=0;points=[[0,0.5],[1,0.5]];portConstraint=eastwest;" vertex="1" parent="l0i7x62eAgYZ_ivTvQpw-68">
          <mxGeometry y="90" width="180" height="30" as="geometry" />
        </mxCell>
        <mxCell id="l0i7x62eAgYZ_ivTvQpw-76" value="" style="shape=partialRectangle;connectable=0;fillColor=none;top=0;left=0;bottom=0;right=0;editable=1;overflow=hidden;" vertex="1" parent="l0i7x62eAgYZ_ivTvQpw-75">
          <mxGeometry width="30" height="30" as="geometry" />
        </mxCell>
        <mxCell id="l0i7x62eAgYZ_ivTvQpw-77" value="email" style="shape=partialRectangle;connectable=0;fillColor=none;top=0;left=0;bottom=0;right=0;align=left;spacingLeft=6;overflow=hidden;" vertex="1" parent="l0i7x62eAgYZ_ivTvQpw-75">
          <mxGeometry x="30" width="150" height="30" as="geometry" />
        </mxCell>
        <mxCell id="l0i7x62eAgYZ_ivTvQpw-78" value="" style="shape=partialRectangle;collapsible=0;dropTarget=0;pointerEvents=0;fillColor=none;top=0;left=0;bottom=0;right=0;points=[[0,0.5],[1,0.5]];portConstraint=eastwest;" vertex="1" parent="l0i7x62eAgYZ_ivTvQpw-68">
          <mxGeometry y="120" width="180" height="30" as="geometry" />
        </mxCell>
        <mxCell id="l0i7x62eAgYZ_ivTvQpw-79" value="" style="shape=partialRectangle;connectable=0;fillColor=none;top=0;left=0;bottom=0;right=0;editable=1;overflow=hidden;" vertex="1" parent="l0i7x62eAgYZ_ivTvQpw-78">
          <mxGeometry width="30" height="30" as="geometry" />
        </mxCell>
        <mxCell id="l0i7x62eAgYZ_ivTvQpw-80" value="crypted_password" style="shape=partialRectangle;connectable=0;fillColor=none;top=0;left=0;bottom=0;right=0;align=left;spacingLeft=6;overflow=hidden;" vertex="1" parent="l0i7x62eAgYZ_ivTvQpw-78">
          <mxGeometry x="30" width="150" height="30" as="geometry" />
        </mxCell>
        <mxCell id="l0i7x62eAgYZ_ivTvQpw-85" value="salt" style="shape=partialRectangle;connectable=0;fillColor=none;top=0;left=0;bottom=0;right=0;align=left;spacingLeft=6;overflow=hidden;" vertex="1" parent="WIyWlLk6GJQsqaUBKTNV-1">
          <mxGeometry x="120" y="450" width="150" height="30" as="geometry" />
        </mxCell>
        <mxCell id="l0i7x62eAgYZ_ivTvQpw-87" value="created_at" style="shape=partialRectangle;connectable=0;fillColor=none;top=0;left=0;bottom=0;right=0;align=left;spacingLeft=6;overflow=hidden;" vertex="1" parent="WIyWlLk6GJQsqaUBKTNV-1">
          <mxGeometry x="120" y="480" width="150" height="30" as="geometry" />
        </mxCell>
        <mxCell id="l0i7x62eAgYZ_ivTvQpw-88" value="updated_at" style="shape=partialRectangle;connectable=0;fillColor=none;top=0;left=0;bottom=0;right=0;align=left;spacingLeft=6;overflow=hidden;" vertex="1" parent="WIyWlLk6GJQsqaUBKTNV-1">
          <mxGeometry x="120" y="510" width="150" height="30" as="geometry" />
        </mxCell>
        <mxCell id="l0i7x62eAgYZ_ivTvQpw-89" value="choice" style="shape=table;startSize=30;container=1;collapsible=1;childLayout=tableLayout;fixedRows=1;rowLines=0;fontStyle=1;align=center;resizeLast=1;" vertex="1" parent="WIyWlLk6GJQsqaUBKTNV-1">
          <mxGeometry x="570" y="300" width="180" height="250" as="geometry" />
        </mxCell>
        <mxCell id="l0i7x62eAgYZ_ivTvQpw-90" value="" style="shape=partialRectangle;collapsible=0;dropTarget=0;pointerEvents=0;fillColor=none;top=0;left=0;bottom=1;right=0;points=[[0,0.5],[1,0.5]];portConstraint=eastwest;" vertex="1" parent="l0i7x62eAgYZ_ivTvQpw-89">
          <mxGeometry y="30" width="180" height="30" as="geometry" />
        </mxCell>
        <mxCell id="l0i7x62eAgYZ_ivTvQpw-91" value="PK" style="shape=partialRectangle;connectable=0;fillColor=none;top=0;left=0;bottom=0;right=0;fontStyle=1;overflow=hidden;" vertex="1" parent="l0i7x62eAgYZ_ivTvQpw-90">
          <mxGeometry width="30" height="30" as="geometry" />
        </mxCell>
        <mxCell id="l0i7x62eAgYZ_ivTvQpw-92" value="choice_id" style="shape=partialRectangle;connectable=0;fillColor=none;top=0;left=0;bottom=0;right=0;align=left;spacingLeft=6;fontStyle=5;overflow=hidden;" vertex="1" parent="l0i7x62eAgYZ_ivTvQpw-90">
          <mxGeometry x="30" width="150" height="30" as="geometry" />
        </mxCell>
        <mxCell id="l0i7x62eAgYZ_ivTvQpw-93" value="" style="shape=partialRectangle;collapsible=0;dropTarget=0;pointerEvents=0;fillColor=none;top=0;left=0;bottom=0;right=0;points=[[0,0.5],[1,0.5]];portConstraint=eastwest;" vertex="1" parent="l0i7x62eAgYZ_ivTvQpw-89">
          <mxGeometry y="60" width="180" height="30" as="geometry" />
        </mxCell>
        <mxCell id="l0i7x62eAgYZ_ivTvQpw-94" value="FK" style="shape=partialRectangle;connectable=0;fillColor=none;top=0;left=0;bottom=0;right=0;editable=1;overflow=hidden;" vertex="1" parent="l0i7x62eAgYZ_ivTvQpw-93">
          <mxGeometry width="30" height="30" as="geometry" />
        </mxCell>
        <mxCell id="l0i7x62eAgYZ_ivTvQpw-95" value="user_id" style="shape=partialRectangle;connectable=0;fillColor=none;top=0;left=0;bottom=0;right=0;align=left;spacingLeft=6;overflow=hidden;" vertex="1" parent="l0i7x62eAgYZ_ivTvQpw-93">
          <mxGeometry x="30" width="150" height="30" as="geometry" />
        </mxCell>
        <mxCell id="l0i7x62eAgYZ_ivTvQpw-96" value="" style="shape=partialRectangle;collapsible=0;dropTarget=0;pointerEvents=0;fillColor=none;top=0;left=0;bottom=0;right=0;points=[[0,0.5],[1,0.5]];portConstraint=eastwest;" vertex="1" parent="l0i7x62eAgYZ_ivTvQpw-89">
          <mxGeometry y="90" width="180" height="30" as="geometry" />
        </mxCell>
        <mxCell id="l0i7x62eAgYZ_ivTvQpw-97" value="" style="shape=partialRectangle;connectable=0;fillColor=none;top=0;left=0;bottom=0;right=0;editable=1;overflow=hidden;" vertex="1" parent="l0i7x62eAgYZ_ivTvQpw-96">
          <mxGeometry width="30" height="30" as="geometry" />
        </mxCell>
        <mxCell id="l0i7x62eAgYZ_ivTvQpw-98" value="first_choice" style="shape=partialRectangle;connectable=0;fillColor=none;top=0;left=0;bottom=0;right=0;align=left;spacingLeft=6;overflow=hidden;" vertex="1" parent="l0i7x62eAgYZ_ivTvQpw-96">
          <mxGeometry x="30" width="150" height="30" as="geometry" />
        </mxCell>
        <mxCell id="l0i7x62eAgYZ_ivTvQpw-99" value="" style="shape=partialRectangle;collapsible=0;dropTarget=0;pointerEvents=0;fillColor=none;top=0;left=0;bottom=0;right=0;points=[[0,0.5],[1,0.5]];portConstraint=eastwest;" vertex="1" parent="l0i7x62eAgYZ_ivTvQpw-89">
          <mxGeometry y="120" width="180" height="30" as="geometry" />
        </mxCell>
        <mxCell id="l0i7x62eAgYZ_ivTvQpw-100" value="" style="shape=partialRectangle;connectable=0;fillColor=none;top=0;left=0;bottom=0;right=0;editable=1;overflow=hidden;" vertex="1" parent="l0i7x62eAgYZ_ivTvQpw-99">
          <mxGeometry width="30" height="30" as="geometry" />
        </mxCell>
        <mxCell id="l0i7x62eAgYZ_ivTvQpw-101" value="second_choice" style="shape=partialRectangle;connectable=0;fillColor=none;top=0;left=0;bottom=0;right=0;align=left;spacingLeft=6;overflow=hidden;" vertex="1" parent="l0i7x62eAgYZ_ivTvQpw-99">
          <mxGeometry x="30" width="150" height="30" as="geometry" />
        </mxCell>
        <mxCell id="l0i7x62eAgYZ_ivTvQpw-102" value="result" style="shape=partialRectangle;connectable=0;fillColor=none;top=0;left=0;bottom=0;right=0;align=left;spacingLeft=6;overflow=hidden;" vertex="1" parent="WIyWlLk6GJQsqaUBKTNV-1">
          <mxGeometry x="600" y="450" width="150" height="30" as="geometry" />
        </mxCell>
        <mxCell id="l0i7x62eAgYZ_ivTvQpw-103" value="created_at" style="shape=partialRectangle;connectable=0;fillColor=none;top=0;left=0;bottom=0;right=0;align=left;spacingLeft=6;overflow=hidden;" vertex="1" parent="WIyWlLk6GJQsqaUBKTNV-1">
          <mxGeometry x="600" y="480" width="150" height="30" as="geometry" />
        </mxCell>
        <mxCell id="l0i7x62eAgYZ_ivTvQpw-104" value="updated_at" style="shape=partialRectangle;connectable=0;fillColor=none;top=0;left=0;bottom=0;right=0;align=left;spacingLeft=6;overflow=hidden;" vertex="1" parent="WIyWlLk6GJQsqaUBKTNV-1">
          <mxGeometry x="600" y="510" width="150" height="30" as="geometry" />
        </mxCell>
        <mxCell id="l0i7x62eAgYZ_ivTvQpw-105" value="" style="edgeStyle=entityRelationEdgeStyle;fontSize=12;html=1;endArrow=ERzeroToMany;startArrow=ERmandOne;exitX=1;exitY=0.5;exitDx=0;exitDy=0;entryX=0;entryY=0.5;entryDx=0;entryDy=0;" edge="1" parent="WIyWlLk6GJQsqaUBKTNV-1" source="l0i7x62eAgYZ_ivTvQpw-78" target="l0i7x62eAgYZ_ivTvQpw-99">
          <mxGeometry width="100" height="100" relative="1" as="geometry">
            <mxPoint x="360" y="580" as="sourcePoint" />
            <mxPoint x="460" y="480" as="targetPoint" />
          </mxGeometry>
        </mxCell>
        <mxCell id="l0i7x62eAgYZ_ivTvQpw-106" value="like" style="shape=table;startSize=30;container=1;collapsible=1;childLayout=tableLayout;fixedRows=1;rowLines=0;fontStyle=1;align=center;resizeLast=1;" vertex="1" parent="WIyWlLk6GJQsqaUBKTNV-1">
          <mxGeometry x="330" y="600" width="180" height="120" as="geometry" />
        </mxCell>
        <mxCell id="l0i7x62eAgYZ_ivTvQpw-107" value="" style="shape=partialRectangle;collapsible=0;dropTarget=0;pointerEvents=0;fillColor=none;top=0;left=0;bottom=1;right=0;points=[[0,0.5],[1,0.5]];portConstraint=eastwest;" vertex="1" parent="l0i7x62eAgYZ_ivTvQpw-106">
          <mxGeometry y="30" width="180" height="30" as="geometry" />
        </mxCell>
        <mxCell id="l0i7x62eAgYZ_ivTvQpw-108" value="PK" style="shape=partialRectangle;connectable=0;fillColor=none;top=0;left=0;bottom=0;right=0;fontStyle=1;overflow=hidden;" vertex="1" parent="l0i7x62eAgYZ_ivTvQpw-107">
          <mxGeometry width="30" height="30" as="geometry" />
        </mxCell>
        <mxCell id="l0i7x62eAgYZ_ivTvQpw-109" value="like_id" style="shape=partialRectangle;connectable=0;fillColor=none;top=0;left=0;bottom=0;right=0;align=left;spacingLeft=6;fontStyle=5;overflow=hidden;" vertex="1" parent="l0i7x62eAgYZ_ivTvQpw-107">
          <mxGeometry x="30" width="150" height="30" as="geometry" />
        </mxCell>
        <mxCell id="l0i7x62eAgYZ_ivTvQpw-110" value="" style="shape=partialRectangle;collapsible=0;dropTarget=0;pointerEvents=0;fillColor=none;top=0;left=0;bottom=0;right=0;points=[[0,0.5],[1,0.5]];portConstraint=eastwest;" vertex="1" parent="l0i7x62eAgYZ_ivTvQpw-106">
          <mxGeometry y="60" width="180" height="30" as="geometry" />
        </mxCell>
        <mxCell id="l0i7x62eAgYZ_ivTvQpw-111" value="" style="shape=partialRectangle;connectable=0;fillColor=none;top=0;left=0;bottom=0;right=0;editable=1;overflow=hidden;" vertex="1" parent="l0i7x62eAgYZ_ivTvQpw-110">
          <mxGeometry width="30" height="30" as="geometry" />
        </mxCell>
        <mxCell id="l0i7x62eAgYZ_ivTvQpw-112" value="user_id" style="shape=partialRectangle;connectable=0;fillColor=none;top=0;left=0;bottom=0;right=0;align=left;spacingLeft=6;overflow=hidden;" vertex="1" parent="l0i7x62eAgYZ_ivTvQpw-110">
          <mxGeometry x="30" width="150" height="30" as="geometry" />
        </mxCell>
        <mxCell id="l0i7x62eAgYZ_ivTvQpw-113" value="" style="shape=partialRectangle;collapsible=0;dropTarget=0;pointerEvents=0;fillColor=none;top=0;left=0;bottom=0;right=0;points=[[0,0.5],[1,0.5]];portConstraint=eastwest;" vertex="1" parent="l0i7x62eAgYZ_ivTvQpw-106">
          <mxGeometry y="90" width="180" height="30" as="geometry" />
        </mxCell>
        <mxCell id="l0i7x62eAgYZ_ivTvQpw-114" value="" style="shape=partialRectangle;connectable=0;fillColor=none;top=0;left=0;bottom=0;right=0;editable=1;overflow=hidden;" vertex="1" parent="l0i7x62eAgYZ_ivTvQpw-113">
          <mxGeometry width="30" height="30" as="geometry" />
        </mxCell>
        <mxCell id="l0i7x62eAgYZ_ivTvQpw-115" value="choice_id" style="shape=partialRectangle;connectable=0;fillColor=none;top=0;left=0;bottom=0;right=0;align=left;spacingLeft=6;overflow=hidden;" vertex="1" parent="l0i7x62eAgYZ_ivTvQpw-113">
          <mxGeometry x="30" width="150" height="30" as="geometry" />
        </mxCell>
        <mxCell id="l0i7x62eAgYZ_ivTvQpw-119" value="" style="edgeStyle=entityRelationEdgeStyle;fontSize=12;html=1;endArrow=ERzeroToMany;startArrow=ERmandOne;exitX=0.5;exitY=1;exitDx=0;exitDy=0;entryX=0;entryY=0.5;entryDx=0;entryDy=0;" edge="1" parent="WIyWlLk6GJQsqaUBKTNV-1" source="l0i7x62eAgYZ_ivTvQpw-68" target="l0i7x62eAgYZ_ivTvQpw-110">
          <mxGeometry width="100" height="100" relative="1" as="geometry">
            <mxPoint x="340" y="590" as="sourcePoint" />
            <mxPoint x="440" y="490" as="targetPoint" />
          </mxGeometry>
        </mxCell>
        <mxCell id="l0i7x62eAgYZ_ivTvQpw-120" value="" style="edgeStyle=entityRelationEdgeStyle;fontSize=12;html=1;endArrow=ERzeroToMany;startArrow=ERmandOne;exitX=0.5;exitY=1;exitDx=0;exitDy=0;entryX=1;entryY=0.5;entryDx=0;entryDy=0;" edge="1" parent="WIyWlLk6GJQsqaUBKTNV-1" source="l0i7x62eAgYZ_ivTvQpw-89" target="l0i7x62eAgYZ_ivTvQpw-110">
          <mxGeometry width="100" height="100" relative="1" as="geometry">
            <mxPoint x="340" y="590" as="sourcePoint" />
            <mxPoint x="440" y="490" as="targetPoint" />
          </mxGeometry>
        </mxCell>
      </root>
    </mxGraphModel>
  </diagram>
</mxfile>
